<?xml version="1.0" encoding="utf-8"?>
<!-- Generator: Adobe Illustrator 24.0.0, SVG Export Plug-In . SVG Version: 6.00 Build 0)  -->
<svg version="1.1" id="Ebene_1" xmlns="http://www.w3.org/2000/svg" xmlns:xlink="http://www.w3.org/1999/xlink" x="0px" y="0px"
	 viewBox="0 0 200 200" style="enable-background:new 0 0 200 200;" xml:space="preserve">
<style type="text/css">
	.st0{fill:#4CB798;}
</style>
<path class="st0" d="M198.81,76.74c-1.04-12.79-2.81-25.42-7.51-37.47c-6.27-16.06-17.69-26.72-33.91-32.36
	c-9.44-3.29-19.21-4.95-29.12-5.91c-5.3-0.51-41.66-0.84-42.95-0.82C72.74,0.42,60.3,1.69,48.1,4.86
	c-9.6,2.49-18.5,6.42-26.07,13.03c-6.15,5.37-10.4,12.06-13.56,19.5c-4.02,9.48-5.86,19.5-7.05,29.65
	c-0.76,6.51-1.19,53.01-0.84,57.15c1.12,13.26,2.87,26.36,8.23,38.7c5.69,13.11,15.25,22.25,28.4,27.71
	c10.44,4.34,21.42,6.21,32.58,7.37c13.99,1.45,28.03,1.44,42.05,1.06c14.24-0.38,28.41-1.62,42.16-5.79
	c8.68-2.63,16.69-6.55,23.5-12.64c7.3-6.54,11.99-14.79,15.17-23.95c3.7-10.64,5.2-21.69,6.13-32.86c0.32-3.88,0.06-7.79,0.73-11.64
	c0-7.8,0-15.6,0-23.4C198.86,84.78,199.13,80.74,198.81,76.74z M93.37,84.14c0,1.41-0.22,2.78-0.62,4.08l20.67,14.22
	c2.73-1.81,6.08-2.89,9.72-2.89c9.11,0,16.5,6.73,16.5,15.04c0,8.31-7.39,15.04-16.5,15.04c-2.73,0-5.3-0.61-7.57-1.68L92.5,141.13
	c0.56,1.51,0.87,3.13,0.87,4.81c0,8.31-7.39,15.04-16.5,15.04c-9.11,0-16.5-6.73-16.5-15.04c0-8.31,7.39-15.04,16.5-15.04
	c3.09,0,5.98,0.78,8.46,2.13l21.99-14.18c-0.44-1.35-0.68-2.78-0.68-4.27c0-1.54,0.26-3.03,0.73-4.43l-22.84-12.7
	c-2.29,1.09-4.89,1.72-7.65,1.72c-9.11,0-16.5-6.73-16.5-15.04c0-8.31,7.39-15.04,16.5-15.04c2.94,0,5.7,0.7,8.1,1.94l22.45-12.96
	c-0.51-1.44-0.78-2.98-0.78-4.58c0-8.31,7.39-15.04,16.5-15.04c9.11,0,16.5,6.73,16.5,15.04c0,8.31-7.39,15.04-16.5,15.04
	c-3.3,0-6.38-0.89-8.96-2.41l-21.4,14.04C93.16,81.43,93.37,82.76,93.37,84.14z"/>
</svg>
