<?xml version="1.0" encoding="utf-8"?>
<!-- Generator: Adobe Illustrator 24.0.0, SVG Export Plug-In . SVG Version: 6.00 Build 0)  -->
<svg version="1.1" id="Ebene_1" xmlns="http://www.w3.org/2000/svg" width="17" height="17" xmlns:xlink="http://www.w3.org/1999/xlink" x="0px" y="0px"
	 viewBox="0 0 16 16" style="enable-background:new 0 0 16 16;" xml:space="preserve">
<style type="text/css">
	.st0{fill:#fff;}
</style>
<path class="st0" d="M15.86,6.18c-0.08-1.02-0.22-2.02-0.6-2.98c-0.5-1.28-1.41-2.13-2.7-2.58c-0.75-0.26-1.53-0.39-2.32-0.47
	C9.82,0.11,6.92,0.08,6.82,0.09c-1,0.02-1.99,0.12-2.96,0.37C3.1,0.66,2.39,0.97,1.78,1.49C1.29,1.92,0.96,2.45,0.7,3.05
	C0.38,3.8,0.24,4.6,0.14,5.41C0.08,5.93,0.05,9.63,0.08,9.96c0.09,1.06,0.23,2.1,0.66,3.08c0.45,1.04,1.21,1.77,2.26,2.21
	c0.83,0.35,1.71,0.49,2.59,0.59c1.11,0.12,2.23,0.11,3.35,0.08c1.13-0.03,2.26-0.13,3.36-0.46c0.69-0.21,1.33-0.52,1.87-1.01
	c0.58-0.52,0.95-1.18,1.21-1.91c0.29-0.85,0.41-1.73,0.49-2.62c0.03-0.31,0-0.62,0.06-0.93c0-0.62,0-1.24,0-1.86
	C15.86,6.82,15.88,6.5,15.86,6.18z M7.46,6.77c0,0.11-0.02,0.22-0.05,0.32l1.65,1.13C9.28,8.08,9.54,8,9.83,8
	c0.73,0,1.31,0.54,1.31,1.2c0,0.66-0.59,1.2-1.31,1.2c-0.22,0-0.42-0.05-0.6-0.13l-1.84,1.05c0.04,0.12,0.07,0.25,0.07,0.38
	c0,0.66-0.59,1.2-1.31,1.2c-0.73,0-1.31-0.54-1.31-1.2c0-0.66,0.59-1.2,1.31-1.2c0.25,0,0.48,0.06,0.67,0.17l1.75-1.13
	C8.54,9.43,8.52,9.31,8.52,9.19c0-0.12,0.02-0.24,0.06-0.35L6.76,7.83C6.58,7.92,6.37,7.97,6.15,7.97c-0.73,0-1.31-0.54-1.31-1.2
	c0-0.66,0.59-1.2,1.31-1.2c0.23,0,0.45,0.06,0.64,0.15l1.79-1.03C8.54,4.58,8.52,4.46,8.52,4.33c0-0.66,0.59-1.2,1.31-1.2
	c0.73,0,1.31,0.54,1.31,1.2c0,0.66-0.59,1.2-1.31,1.2c-0.26,0-0.51-0.07-0.71-0.19l-1.7,1.12C7.45,6.55,7.46,6.66,7.46,6.77z"/>
</svg>
